<svg width="133" height="133" viewBox="0 0 133 133" fill="none" xmlns="http://www.w3.org/2000/svg">
<g clip-path="url(#clip0_3735_604)">
<path d="M66.5 132.986C30.0548 132.986 0.5 103.431 0.5 66.9858C0.5 30.5406 30.0548 0.98584 66.5 0.98584C102.945 0.98584 132.5 30.5406 132.5 66.9858C132.5 103.431 102.945 132.986 66.5 132.986Z" fill="url(#paint0_linear_3735_604)"/>
<path d="M66.5003 30.0521C78.5255 30.0521 79.9511 30.0917 84.7031 30.3161C89.0987 30.5141 91.4879 31.2533 93.0719 31.8737C95.1707 32.6921 96.6756 33.6689 98.2464 35.2397C99.8171 36.8105 100.794 38.3153 101.612 40.4141C102.233 41.9981 102.959 44.3873 103.17 48.7829C103.381 53.5349 103.434 54.9605 103.434 66.9857C103.434 79.0109 103.394 80.4365 103.17 85.1885C102.972 89.5841 102.233 91.9733 101.612 93.5573C100.794 95.6561 99.8171 97.1609 98.2464 98.7317C96.6756 100.302 95.1707 101.279 93.0719 102.098C91.4879 102.718 89.0987 103.444 84.7031 103.655C79.9511 103.866 78.5255 103.919 66.5003 103.919C54.4751 103.919 53.0495 103.88 48.2975 103.655C43.9019 103.457 41.5127 102.718 39.9287 102.098C37.8299 101.279 36.3251 100.302 34.7543 98.7317C33.1835 97.1609 32.2067 95.6561 31.3883 93.5573C30.7679 91.9733 30.0419 89.5841 29.8307 85.1885C29.6195 80.4365 29.5667 79.0109 29.5667 66.9857C29.5667 54.9605 29.6063 53.5349 29.8307 48.7829C30.0287 44.3873 30.7679 41.9981 31.3883 40.4141C32.2067 38.3153 33.1835 36.8105 34.7543 35.2397C36.3251 33.6689 37.8299 32.6921 39.9287 31.8737C41.5127 31.2533 43.9019 30.5273 48.2975 30.3161C53.0495 30.0917 54.4751 30.0521 66.5003 30.0521ZM66.5003 21.9341C54.2639 21.9341 52.7327 21.9869 47.9279 22.2113C43.1363 22.4357 39.8627 23.1881 36.9851 24.3101C34.0283 25.4453 31.5071 26.9897 29.0123 29.4977C26.5043 32.0057 24.9731 34.5137 23.8115 37.4837C22.7027 40.3481 21.9371 43.6217 21.7127 48.4265C21.4883 53.2313 21.4355 54.7625 21.4355 66.9989C21.4355 79.2353 21.4883 80.7665 21.7127 85.5713C21.9371 90.3629 22.6895 93.6365 23.8115 96.5141C24.9599 99.4577 26.5043 101.979 29.0123 104.474C31.5203 106.982 34.0283 108.513 36.9983 109.674C39.8627 110.783 43.1363 111.549 47.9411 111.773C52.7459 111.998 54.2771 112.05 66.5135 112.05C78.7499 112.05 80.2811 111.998 85.0859 111.773C89.8775 111.549 93.1511 110.796 96.0287 109.674C98.9723 108.526 101.494 106.982 103.988 104.474C106.496 101.966 108.028 99.4577 109.189 96.4877C110.298 93.6233 111.064 90.3497 111.288 85.5449C111.512 80.7401 111.565 79.2089 111.565 66.9725C111.565 54.7361 111.512 53.2049 111.288 48.4001C111.064 43.6085 110.311 40.3349 109.189 37.4573C108.041 34.5137 106.496 31.9925 103.988 29.4977C101.48 26.9897 98.9724 25.4585 96.0023 24.2969C93.1379 23.1881 89.8643 22.4225 85.0595 22.1981C80.2679 21.9869 78.7367 21.9341 66.5003 21.9341Z" fill="white"/>
<path d="M66.5009 43.8462C53.7233 43.8462 43.3613 54.2082 43.3613 66.9858C43.3613 79.7634 53.7233 90.1254 66.5009 90.1254C79.2785 90.1254 89.6405 79.7634 89.6405 66.9858C89.6405 54.2082 79.2785 43.8462 66.5009 43.8462ZM66.5009 82.0074C58.2113 82.0074 51.4793 75.2886 51.4793 66.9858C51.4793 58.683 58.2113 51.9642 66.5009 51.9642C74.7905 51.9642 81.5225 58.683 81.5225 66.9858C81.5225 75.2886 74.7905 82.0074 66.5009 82.0074Z" fill="white"/>
<path d="M90.5507 48.3469C93.5396 48.3469 95.9627 45.9239 95.9627 42.9349C95.9627 39.946 93.5396 37.5229 90.5507 37.5229C87.5617 37.5229 85.1387 39.946 85.1387 42.9349C85.1387 45.9239 87.5617 48.3469 90.5507 48.3469Z" fill="white"/>
</g>
<defs>
<linearGradient id="paint0_linear_3735_604" x1="19.831" y1="113.655" x2="113.169" y2="20.3168" gradientUnits="userSpaceOnUse">
<stop stop-color="#FFD521"/>
<stop offset="0.055" stop-color="#FFD020"/>
<stop offset="0.124" stop-color="#FEC01E"/>
<stop offset="0.2" stop-color="#FCA71B"/>
<stop offset="0.282" stop-color="#FA8316"/>
<stop offset="0.368" stop-color="#F85510"/>
<stop offset="0.456" stop-color="#F51E09"/>
<stop offset="0.5" stop-color="#F30005"/>
<stop offset="0.503" stop-color="#F20007"/>
<stop offset="0.597" stop-color="#E1003B"/>
<stop offset="0.688" stop-color="#D30067"/>
<stop offset="0.776" stop-color="#C70088"/>
<stop offset="0.859" stop-color="#BF00A0"/>
<stop offset="0.936" stop-color="#BB00AF"/>
<stop offset="1" stop-color="#B900B4"/>
</linearGradient>
<clipPath id="clip0_3735_604">
<rect width="132" height="132" fill="white" transform="translate(0.5 0.98584)"/>
</clipPath>
</defs>
</svg>
