<svg width="23" height="23" viewBox="0 0 23 23" fill="none" xmlns="http://www.w3.org/2000/svg">
<path fill-rule="evenodd" clip-rule="evenodd" d="M1.22602 22.1586C1.02384 21.9565 0.910254 21.6822 0.910254 21.3963C0.910253 21.1104 1.02384 20.8362 1.22602 20.634L19.2062 2.65384L9.61157 2.65536C9.32528 2.65536 9.05072 2.54163 8.84828 2.3392C8.64585 2.13676 8.53212 1.8622 8.53212 1.57591C8.53212 1.28962 8.64585 1.01506 8.84828 0.812627C9.05072 0.61019 9.32528 0.496463 9.61157 0.496462L21.8087 0.496461C21.9505 0.496283 22.091 0.524083 22.222 0.578266C22.3531 0.63245 22.4722 0.711955 22.5724 0.812227C22.6727 0.912499 22.7522 1.03157 22.8064 1.16261C22.8606 1.29366 22.8884 1.43411 22.8882 1.57591L22.8882 13.7731C22.8882 14.0594 22.7745 14.3339 22.572 14.5364C22.3696 14.7388 22.095 14.8525 21.8087 14.8525C21.5225 14.8525 21.2479 14.7388 21.0455 14.5364C20.843 14.3339 20.7293 14.0594 20.7293 13.7731L20.7308 4.17848L2.75067 22.1586C2.54848 22.3608 2.27427 22.4744 1.98834 22.4744C1.70241 22.4744 1.4282 22.3608 1.22602 22.1586Z" fill="black"/>
</svg>
